<svg xmlns="http://www.w3.org/2000/svg" xmlns:xlink="http://www.w3.org/1999/xlink" viewBox="0 0 24 24" fill="#FFFFFF">
  <path d="M10.441406 3C9.1537708 3 8.002646 3.8304098 7.5957031 5.0527344L7.2792969 6L4 6C2.9069372 6 2 6.9069372 2 8L2 19C2 20.093063 2.9069372 21 4 21L20 21C21.093063 21 22 20.093063 22 19L22 8C22 6.9069372 21.093063 6 20 6L16.720703 6L16.404297 5.0527344C15.997586 3.8311067 14.846229 3 13.558594 3L10.441406 3 z M 10.441406 5L13.558594 5C13.992958 5 14.370523 5.2712214 14.507812 5.6835938L15.279297 8L20 8L20 19L4 19L4 8L8.7207031 8L9.4921875 5.6835938C9.6292447 5.2719183 10.007042 5 10.441406 5 z M 12 9C9.8026661 9 8 10.802666 8 13C8 15.197334 9.8026661 17 12 17C14.197334 17 16 15.197334 16 13C16 10.802666 14.197334 9 12 9 z M 12 11C13.116666 11 14 11.883334 14 13C14 14.116666 13.116666 15 12 15C10.883334 15 10 14.116666 10 13C10 11.883334 10.883334 11 12 11 z" fill="#FFFFFF" />
</svg>