<svg xmlns="http://www.w3.org/2000/svg" xmlns:xlink="http://www.w3.org/1999/xlink" style="margin:auto;background:#f1f2f3;display:block;z-index:1;position:relative" width="1366" height="625" preserveAspectRatio="xMidYMid" viewBox="0 0 1366 625">
<g transform=""><g transform="translate(1072.7429603777541,185.86483570514653) scale(100)" opacity="0.5">
  <path d="M3.954570000000001 0 C3.954570000000001 1.1474400000000002 4.246906128373432 1.1270028106815833 3.673186128373432 2.1207149999999997 S2.9709971893184175 2.8510380810438276 1.9772850000000008 3.424758081043828 S1.1474400000000005 4.24143 2.5971268366537795e-16 4.24143 S-0.983572810681583 3.998478081043828 -1.9772849999999995 3.4247580810438283 S-3.0994661283734306 3.114427189318418 -3.6731861283734313 2.1207150000000015 S-3.954570000000001 1.1474400000000007 -3.954570000000001 4.84295149250415e-16 S-4.246906128373432 -1.1270028106815821 -3.6731861283734326 -2.120714999999999 S-2.9709971893184184 -2.8510380810438267 -1.9772850000000022 -3.4247580810438274 S-1.1474400000000011 -4.24143 -7.791380509961337e-16 -4.24143 S0.9835728106815808 -3.998478081043829 1.9772849999999977 -3.4247580810438296 S3.09946612837343 -3.114427189318418 3.673186128373431 -2.120715000000002 S3.9545700000000004 -1.1474400000000011 3.954570000000001 -9.6859029850083e-16" fill="#1173f8" stroke-width="0" transform="rotate(58.1053)">
    <animateTransform attributeName="transform" type="rotate" dur="7.142857142857142s" repeatCount="indefinite" values="0;60"></animateTransform>
  </path>
</g><g transform="translate(1150.6915524533047,160.53780284617585) scale(100)" opacity="0.5">
  <path d="M4.745484 0 C4.745484 1.3769280000000002 5.096287354048118 1.3524033728179 4.407823354048118 2.5448579999999996 S3.5651966271821003 3.421245697252593 2.3727420000000006 4.109709697252593 S1.3769280000000004 5.089716 3.116552203984535e-16 5.089716 S-1.1802873728178995 4.798173697252594 -2.3727419999999992 4.109709697252594 S-3.719359354048117 3.737312627182101 -4.4078233540481175 2.544858000000002 S-4.745484 1.3769280000000008 -4.745484 5.811541791004978e-16 S-5.096287354048119 -1.3524033728178988 -4.407823354048119 -2.5448579999999987 S-3.565196627182102 -3.4212456972525915 -2.3727420000000023 -4.109709697252592 S-1.376928000000001 -5.089716 -9.349656611953604e-16 -5.089716 S1.1802873728178969 -4.798173697252594 2.372741999999997 -4.109709697252595 S3.719359354048116 -3.7373126271821016 4.407823354048117 -2.5448580000000023 S4.745484 -1.3769280000000013 4.745484 -1.1623083582009957e-15" fill="#1751c9" stroke-width="0" transform="rotate(56.2107)">
    <animateTransform attributeName="transform" type="rotate" dur="3.571428571428571s" repeatCount="indefinite" values="0;60"></animateTransform>
  </path>
</g><g transform="translate(1337.7681734346265,99.7529239846462) scale(100)" opacity="0.5">
  <path d="M6.643677600000001 0 C6.643677600000001 1.9276992000000004 7.134802295667367 1.8933647219450602 6.170952695667366 3.5628012 S4.991275278054941 4.7897439761536305 3.3218388000000014 5.753593576153631 S1.9276992000000008 7.125602400000001 4.3631730855783496e-16 7.125602400000001 S-1.6524023219450594 6.7174431761536315 -3.321838799999999 5.753593576153632 S-5.207103095667364 5.2322376780549416 -6.170952695667364 3.5628012000000027 S-6.643677600000001 1.9276992000000013 -6.643677600000001 8.136158507406971e-16 S-7.134802295667367 -1.8933647219450587 -6.170952695667367 -3.5628011999999987 S-4.9912752780549425 -4.789743976153629 -3.3218388000000036 -5.75359357615363 S-1.9276992000000017 -7.125602400000001 -1.3089519256735047e-15 -7.125602400000001 S1.6524023219450557 -6.717443176153632 3.321838799999996 -5.753593576153634 S5.207103095667363 -5.232237678054942 6.170952695667364 -3.5628012000000036 S6.6436776 -1.927699200000002 6.643677600000001 -1.6272317014813941e-15" fill="#10329b" stroke-width="0" transform="rotate(54.316)">
    <animateTransform attributeName="transform" type="rotate" dur="2.380952380952381s" repeatCount="indefinite" values="0;60"></animateTransform>
  </path>
</g></g>
</svg>